<svg width="20" height="20" viewBox="0 0 20 20" fill="none" xmlns="http://www.w3.org/2000/svg">
<path d="M10 20C15.5228 20 20 15.5228 20 10C20 4.47715 15.5228 0 10 0C4.47715 0 0 4.47715 0 10C0 15.5228 4.47715 20 10 20Z" fill="#444444"/>
<path fill-rule="evenodd" clip-rule="evenodd" d="M8.29686 10.0498V16.3769C8.29788 16.4219 8.31623 16.4649 8.3481 16.4967C8.37997 16.5286 8.42291 16.547 8.46797 16.548H10.8197C10.8648 16.547 10.9077 16.5286 10.9396 16.4967C10.9715 16.4649 10.9898 16.4219 10.9909 16.3769V9.93637H12.686C12.7283 9.93402 12.7685 9.91707 12.7997 9.8884C12.8309 9.85974 12.8512 9.82114 12.8572 9.77919L13.0004 7.85519C13.0043 7.81041 12.9904 7.76589 12.9617 7.73127C12.9331 7.69664 12.8919 7.67469 12.8472 7.67015H10.9769V6.30326C10.9761 6.22723 10.9903 6.15178 11.0187 6.08123C11.0471 6.01068 11.0891 5.94642 11.1423 5.8921C11.1955 5.83778 11.2589 5.79447 11.3288 5.76465C11.3988 5.73483 11.4739 5.71908 11.5499 5.7183H12.8711C12.9161 5.71729 12.9591 5.69894 12.9909 5.66706C13.0228 5.63519 13.0412 5.59226 13.0422 5.54719V3.6232C13.0412 3.57813 13.0228 3.5352 12.9909 3.50333C12.9591 3.47145 12.9161 3.4531 12.8711 3.45209H10.6486C10.0251 3.45261 9.42719 3.70056 8.98626 4.14149C8.54533 4.58242 8.29739 5.18029 8.29686 5.80386V7.67015H7.12894C7.08387 7.67117 7.04094 7.68952 7.00906 7.72139C6.97719 7.75326 6.95884 7.7962 6.95782 7.84126V9.77919C6.95884 9.82425 6.97719 9.86718 7.00906 9.89906C7.04094 9.93093 7.08387 9.94928 7.12894 9.95029H8.29686V10.0498Z" fill="white"/>
</svg>
