<svg width="20" height="20" viewBox="0 0 20 20" fill="none" xmlns="http://www.w3.org/2000/svg">
<path d="M9.99901 19.998C15.5213 19.998 19.998 15.5213 19.998 9.99901C19.998 4.47671 15.5213 0 9.99901 0C4.47671 0 0 4.47671 0 9.99901C0 15.5213 4.47671 19.998 9.99901 19.998Z" fill="#444444"/>
<path d="M14.3101 3.78992C14.3101 3.78992 13.4945 3.78992 12.6668 5.03134C12.257 4.62151 11.0096 4.61753 10.5978 4.61753C10.186 4.61753 8.93661 4.61753 8.52678 5.03134C7.69917 3.78992 6.88548 3.78992 6.88548 3.78992C6.73941 4.11492 6.66289 4.46686 6.66084 4.82317C6.65878 5.17948 6.73123 5.53229 6.87354 5.85895C6.45974 6.27475 6.04394 6.68855 6.04394 8.75759C6.04394 10.8266 7.54797 11.8651 9.35042 12.07C9.11765 12.269 8.93661 12.8976 8.93661 13.3115C8.49334 13.5024 7.9953 13.5236 7.53742 13.3709C7.07954 13.2183 6.69382 12.9026 6.45377 12.4838C6.45377 12.4838 6.03996 11.6562 5.21036 11.6562C5.21036 11.6562 4.38274 11.5766 5.21036 12.07C5.54645 12.4408 5.82599 12.8591 6.03996 13.3115C6.03996 13.3115 6.67659 15.0403 8.95253 14.5529C8.95253 15.2273 8.95253 16.2101 8.95253 16.2101H12.253V13.3115C12.253 12.9832 12.072 12.271 11.8392 12.07C13.6476 11.8711 15.1497 10.8286 15.1497 8.75759C15.1497 6.68657 14.7359 6.27475 14.3241 5.86094C14.4655 5.53365 14.5373 5.18051 14.5349 4.82396C14.5325 4.46742 14.456 4.11528 14.3101 3.78992Z" fill="white"/>
</svg>
