<svg width="20" height="22" viewBox="0 0 20 22" fill="none" xmlns="http://www.w3.org/2000/svg">
<g clip-path="url(#clip0)">
<path d="M10.0045 6.05861C7.16517 6.05861 4.87499 8.2629 4.87499 10.9957C4.87499 13.7285 7.16517 15.9328 10.0045 15.9328C12.8437 15.9328 15.1339 13.7285 15.1339 10.9957C15.1339 8.2629 12.8437 6.05861 10.0045 6.05861ZM10.0045 14.2055C8.16963 14.2055 6.66963 12.766 6.66963 10.9957C6.66963 9.2254 8.16517 7.78595 10.0045 7.78595C11.8437 7.78595 13.3393 9.2254 13.3393 10.9957C13.3393 12.766 11.8393 14.2055 10.0045 14.2055ZM16.5402 5.85665C16.5402 6.49689 16.0045 7.00822 15.3437 7.00822C14.6786 7.00822 14.1473 6.49259 14.1473 5.85665C14.1473 5.22072 14.683 4.70509 15.3437 4.70509C16.0045 4.70509 16.5402 5.22072 16.5402 5.85665ZM19.9375 7.0254C19.8616 5.48282 19.4955 4.11642 18.3214 2.99064C17.1518 1.86486 15.7321 1.51251 14.1295 1.43517C12.4777 1.34493 7.52678 1.34493 5.87499 1.43517C4.27678 1.50822 2.85713 1.86056 1.68303 2.98634C0.50892 4.11212 0.147313 5.47853 0.0669555 7.02111C-0.0267944 8.61095 -0.0267944 13.3762 0.0669555 14.966C0.142848 16.5086 0.50892 17.875 1.68303 19.0008C2.85713 20.1266 4.27231 20.4789 5.87499 20.5563C7.52678 20.6465 12.4777 20.6465 14.1295 20.5563C15.7321 20.4832 17.1518 20.1309 18.3214 19.0008C19.4911 17.875 19.8571 16.5086 19.9375 14.966C20.0312 13.3762 20.0312 8.61525 19.9375 7.0254ZM17.8036 16.6719C17.4553 17.5141 16.7812 18.1629 15.9018 18.5024C14.5848 19.0051 11.4598 18.8891 10.0045 18.8891C8.5491 18.8891 5.41963 19.0008 4.10713 18.5024C3.23213 18.1672 2.55803 17.5184 2.20535 16.6719C1.68303 15.4043 1.80356 12.3965 1.80356 10.9957C1.80356 9.59493 1.68749 6.58282 2.20535 5.31954C2.55356 4.47736 3.22767 3.82853 4.10713 3.48907C5.4241 2.98634 8.5491 3.10236 10.0045 3.10236C11.4598 3.10236 14.5893 2.99064 15.9018 3.48907C16.7768 3.82423 17.4509 4.47306 17.8036 5.31954C18.3259 6.58712 18.2053 9.59493 18.2053 10.9957C18.2053 12.3965 18.3259 15.4086 17.8036 16.6719Z" fill="#444444"/>
</g>
<defs>
<clipPath id="clip0">
<rect width="20" height="22" fill="white"/>
</clipPath>
</defs>
</svg>
